solid 
facet normal 0.0 0.0 -0.9999999999999999
outer loop
vertex -12.6 -17.087773497250915 0.0
vertex -12.4 -16.987773497250913 0.0
vertex 12.4 -16.987773497250913 0.0
endloop
endfacet
facet normal 0.0 0.0 -1.0
outer loop
vertex -12.598078528040324 -17.107282529452526 0.0
vertex -12.599518472667219 -17.09757521128387 0.0
vertex -12.6 -17.087773497250915 0.0
endloop
endfacet
facet normal 0.0 0.0 -0.9999999999999999
outer loop
vertex -12.592387953251128 -17.126041840487424 0.0
vertex -12.59569403357322 -17.11680196497636 0.0
vertex -12.598078528040324 -17.107282529452526 0.0
endloop
endfacet
facet normal 0.0 0.0 -1.0
outer loop
vertex -12.583146961230254 -17.143330520552876 0.0
vertex -12.588192126434835 -17.134913170933515 0.0
vertex -12.592387953251128 -17.126041840487424 0.0
endloop
endfacet
facet normal 0.0 0.0 -1.0
outer loop
vertex -12.570710678118655 -17.15848417536957 0.0
vertex -12.577301045336274 -17.15121282566728 0.0
vertex -12.583146961230254 -17.143330520552876 0.0
endloop
endfacet
facet normal 0.0 0.0 -1.0
outer loop
vertex -12.55555702330196 -17.17092045848117 0.0
vertex -12.563439328416365 -17.16507454258719 0.0
vertex -12.570710678118655 -17.15848417536957 0.0
endloop
endfacet
facet normal 0.0 0.0 -1.0
outer loop
vertex -12.53826834323651 -17.180161450502045 0.0
vertex -12.547139673682599 -17.17596562368575 0.0
vertex -12.55555702330196 -17.17092045848117 0.0
endloop
endfacet
facet normal 0.0 0.0 -1.0
outer loop
vertex -12.519509032201613 -17.185852025291236 0.0
vertex -12.529028467725446 -17.183467530824135 0.0
vertex -12.53826834323651 -17.180161450502045 0.0
endloop
endfacet
facet normal 0.0 0.0 -1.0
outer loop
vertex -12.5 -17.187773497250916 0.0
vertex -12.509801714032957 -17.187291969918135 0.0
vertex -12.519509032201613 -17.185852025291236 0.0
endloop
endfacet
facet normal -0.0 0.0 -1.0
outer loop
vertex 12.509801714032957 -17.187291969918135 0.0
vertex 12.5 -17.187773497250916 0.0
vertex -12.5 -17.187773497250916 0.0
endloop
endfacet
facet normal 0.0 0.0 -1.0
outer loop
vertex 12.529028467725446 -17.183467530824135 0.0
vertex 12.519509032201613 -17.185852025291236 0.0
vertex 12.509801714032957 -17.187291969918135 0.0
endloop
endfacet
facet normal 0.0 0.0 -0.9999999999999999
outer loop
vertex 12.547139673682599 -17.17596562368575 0.0
vertex 12.53826834323651 -17.180161450502045 0.0
vertex 12.529028467725446 -17.183467530824135 0.0
endloop
endfacet
facet normal 0.0 0.0 -1.0
outer loop
vertex 12.563439328416365 -17.16507454258719 0.0
vertex 12.55555702330196 -17.17092045848117 0.0
vertex 12.547139673682599 -17.17596562368575 0.0
endloop
endfacet
facet normal 0.0 0.0 -1.0
outer loop
vertex 12.577301045336274 -17.15121282566728 0.0
vertex 12.570710678118655 -17.15848417536957 0.0
vertex 12.563439328416365 -17.16507454258719 0.0
endloop
endfacet
facet normal 0.0 0.0 -1.0
outer loop
vertex 12.588192126434835 -17.134913170933515 0.0
vertex 12.583146961230254 -17.143330520552876 0.0
vertex 12.577301045336274 -17.15121282566728 0.0
endloop
endfacet
facet normal 0.0 0.0 -1.0
outer loop
vertex 12.59569403357322 -17.11680196497636 0.0
vertex 12.592387953251128 -17.126041840487424 0.0
vertex 12.588192126434835 -17.134913170933515 0.0
endloop
endfacet
facet normal 0.0 0.0 -1.0
outer loop
vertex 12.599518472667219 -17.09757521128387 0.0
vertex 12.598078528040324 -17.107282529452526 0.0
vertex 12.59569403357322 -17.11680196497636 0.0
endloop
endfacet
facet normal 0.0 -0.0 -1.0
outer loop
vertex 12.6 17.087773497250915 0.0
vertex 12.6 -17.087773497250915 0.0
vertex 12.599518472667219 -17.09757521128387 0.0
endloop
endfacet
facet normal 0.0 0.0 -1.0
outer loop
vertex 12.598078528040324 17.107282529452526 0.0
vertex 12.599518472667219 17.09757521128387 0.0
vertex 12.6 17.087773497250915 0.0
endloop
endfacet
facet normal 0.0 0.0 -0.9999999999999999
outer loop
vertex 12.592387953251128 17.126041840487424 0.0
vertex 12.59569403357322 17.11680196497636 0.0
vertex 12.598078528040324 17.107282529452526 0.0
endloop
endfacet
facet normal 0.0 0.0 -1.0
outer loop
vertex 12.583146961230254 17.143330520552876 0.0
vertex 12.588192126434835 17.134913170933515 0.0
vertex 12.592387953251128 17.126041840487424 0.0
endloop
endfacet
facet normal 0.0 0.0 -1.0
outer loop
vertex 12.570710678118655 17.15848417536957 0.0
vertex 12.577301045336274 17.15121282566728 0.0
vertex 12.583146961230254 17.143330520552876 0.0
endloop
endfacet
facet normal 0.0 0.0 -1.0
outer loop
vertex 12.55555702330196 17.17092045848117 0.0
vertex 12.563439328416365 17.16507454258719 0.0
vertex 12.570710678118655 17.15848417536957 0.0
endloop
endfacet
facet normal 0.0 0.0 -1.0
outer loop
vertex 12.53826834323651 17.180161450502045 0.0
vertex 12.547139673682599 17.17596562368575 0.0
vertex 12.55555702330196 17.17092045848117 0.0
endloop
endfacet
facet normal 0.0 0.0 -1.0
outer loop
vertex 12.519509032201613 17.185852025291236 0.0
vertex 12.529028467725446 17.183467530824135 0.0
vertex 12.53826834323651 17.180161450502045 0.0
endloop
endfacet
facet normal 0.0 0.0 -1.0
outer loop
vertex 12.5 17.187773497250916 0.0
vertex 12.509801714032957 17.187291969918135 0.0
vertex 12.519509032201613 17.185852025291236 0.0
endloop
endfacet
facet normal 0.0 0.0 -1.0
outer loop
vertex -12.509801714032957 17.187291969918135 0.0
vertex -12.5 17.187773497250916 0.0
vertex 12.5 17.187773497250916 0.0
endloop
endfacet
facet normal 0.0 0.0 -1.0
outer loop
vertex -12.529028467725446 17.183467530824135 0.0
vertex -12.519509032201613 17.185852025291236 0.0
vertex -12.509801714032957 17.187291969918135 0.0
endloop
endfacet
facet normal 0.0 0.0 -0.9999999999999999
outer loop
vertex -12.547139673682599 17.17596562368575 0.0
vertex -12.53826834323651 17.180161450502045 0.0
vertex -12.529028467725446 17.183467530824135 0.0
endloop
endfacet
facet normal 0.0 0.0 -1.0
outer loop
vertex -12.563439328416365 17.16507454258719 0.0
vertex -12.55555702330196 17.17092045848117 0.0
vertex -12.547139673682599 17.17596562368575 0.0
endloop
endfacet
facet normal 0.0 0.0 -1.0
outer loop
vertex -12.577301045336274 17.15121282566728 0.0
vertex -12.570710678118655 17.15848417536957 0.0
vertex -12.563439328416365 17.16507454258719 0.0
endloop
endfacet
facet normal 0.0 0.0 -1.0
outer loop
vertex -12.588192126434835 17.134913170933515 0.0
vertex -12.583146961230254 17.143330520552876 0.0
vertex -12.577301045336274 17.15121282566728 0.0
endloop
endfacet
facet normal 0.0 0.0 -1.0
outer loop
vertex -12.59569403357322 17.11680196497636 0.0
vertex -12.592387953251128 17.126041840487424 0.0
vertex -12.588192126434835 17.134913170933515 0.0
endloop
endfacet
facet normal 0.0 0.0 -1.0
outer loop
vertex -12.599518472667219 17.09757521128387 0.0
vertex -12.598078528040324 17.107282529452526 0.0
vertex -12.59569403357322 17.11680196497636 0.0
endloop
endfacet
facet normal 0.0 0.0 -1.0
outer loop
vertex -12.6 -17.087773497250915 0.0
vertex -12.6 17.087773497250915 0.0
vertex -12.599518472667219 17.09757521128387 0.0
endloop
endfacet
facet normal 0.0 -0.0 -1.0
outer loop
vertex -12.4 16.987773497250913 0.0
vertex -12.4 -16.987773497250913 0.0
vertex -12.6 -17.087773497250915 0.0
endloop
endfacet
facet normal 0.0 0.0 -1.0
outer loop
vertex -12.598078528040324 -17.107282529452526 0.0
vertex -12.6 -17.087773497250915 0.0
vertex 12.4 -16.987773497250913 0.0
endloop
endfacet
facet normal 0.0 0.0 -1.0
outer loop
vertex -12.583146961230254 -17.143330520552876 0.0
vertex -12.592387953251128 -17.126041840487424 0.0
vertex -12.598078528040324 -17.107282529452526 0.0
endloop
endfacet
facet normal 0.0 0.0 -1.0
outer loop
vertex -12.55555702330196 -17.17092045848117 0.0
vertex -12.570710678118655 -17.15848417536957 0.0
vertex -12.583146961230254 -17.143330520552876 0.0
endloop
endfacet
facet normal 0.0 0.0 -1.0
outer loop
vertex -12.519509032201613 -17.185852025291236 0.0
vertex -12.53826834323651 -17.180161450502045 0.0
vertex -12.55555702330196 -17.17092045848117 0.0
endloop
endfacet
facet normal -0.0 0.0 -1.0
outer loop
vertex 12.509801714032957 -17.187291969918135 0.0
vertex -12.5 -17.187773497250916 0.0
vertex -12.519509032201613 -17.185852025291236 0.0
endloop
endfacet
facet normal 0.0 0.0 -0.9999999999999999
outer loop
vertex 12.547139673682599 -17.17596562368575 0.0
vertex 12.529028467725446 -17.183467530824135 0.0
vertex 12.509801714032957 -17.187291969918135 0.0
endloop
endfacet
facet normal 0.0 0.0 -1.0
outer loop
vertex 12.577301045336274 -17.15121282566728 0.0
vertex 12.563439328416365 -17.16507454258719 0.0
vertex 12.547139673682599 -17.17596562368575 0.0
endloop
endfacet
facet normal 0.0 0.0 -1.0
outer loop
vertex 12.59569403357322 -17.11680196497636 0.0
vertex 12.588192126434835 -17.134913170933515 0.0
vertex 12.577301045336274 -17.15121282566728 0.0
endloop
endfacet
facet normal 0.0 0.0 -1.0
outer loop
vertex 12.6 17.087773497250915 0.0
vertex 12.599518472667219 -17.09757521128387 0.0
vertex 12.59569403357322 -17.11680196497636 0.0
endloop
endfacet
facet normal 0.0 0.0 -1.0
outer loop
vertex 12.592387953251128 17.126041840487424 0.0
vertex 12.598078528040324 17.107282529452526 0.0
vertex 12.6 17.087773497250915 0.0
endloop
endfacet
facet normal 0.0 0.0 -1.0
outer loop
vertex 12.570710678118655 17.15848417536957 0.0
vertex 12.583146961230254 17.143330520552876 0.0
vertex 12.592387953251128 17.126041840487424 0.0
endloop
endfacet
facet normal 0.0 0.0 -1.0
outer loop
vertex 12.53826834323651 17.180161450502045 0.0
vertex 12.55555702330196 17.17092045848117 0.0
vertex 12.570710678118655 17.15848417536957 0.0
endloop
endfacet
facet normal 0.0 0.0 -1.0
outer loop
vertex 12.5 17.187773497250916 0.0
vertex 12.519509032201613 17.185852025291236 0.0
vertex 12.53826834323651 17.180161450502045 0.0
endloop
endfacet
facet normal 0.0 0.0 -0.9999999999999999
outer loop
vertex -12.529028467725446 17.183467530824135 0.0
vertex -12.509801714032957 17.187291969918135 0.0
vertex 12.5 17.187773497250916 0.0
endloop
endfacet
facet normal 0.0 0.0 -1.0
outer loop
vertex -12.563439328416365 17.16507454258719 0.0
vertex -12.547139673682599 17.17596562368575 0.0
vertex -12.529028467725446 17.183467530824135 0.0
endloop
endfacet
facet normal 0.0 0.0 -1.0
outer loop
vertex -12.588192126434835 17.134913170933515 0.0
vertex -12.577301045336274 17.15121282566728 0.0
vertex -12.563439328416365 17.16507454258719 0.0
endloop
endfacet
facet normal 0.0 0.0 -1.0
outer loop
vertex -12.599518472667219 17.09757521128387 0.0
vertex -12.59569403357322 17.11680196497636 0.0
vertex -12.588192126434835 17.134913170933515 0.0
endloop
endfacet
facet normal -0.0 0.0 -1.0
outer loop
vertex -12.4 16.987773497250913 0.0
vertex -12.6 -17.087773497250915 0.0
vertex -12.599518472667219 17.09757521128387 0.0
endloop
endfacet
facet normal 0.0 0.0 -1.0
outer loop
vertex -12.583146961230254 -17.143330520552876 0.0
vertex -12.598078528040324 -17.107282529452526 0.0
vertex 12.4 -16.987773497250913 0.0
endloop
endfacet
facet normal 0.0 0.0 -1.0
outer loop
vertex -12.519509032201613 -17.185852025291236 0.0
vertex -12.55555702330196 -17.17092045848117 0.0
vertex -12.583146961230254 -17.143330520552876 0.0
endloop
endfacet
facet normal -0.0 0.0 -0.9999999999999999
outer loop
vertex 12.547139673682599 -17.17596562368575 0.0
vertex 12.509801714032957 -17.187291969918135 0.0
vertex -12.519509032201613 -17.185852025291236 0.0
endloop
endfacet
facet normal 0.0 0.0 -1.0
outer loop
vertex 12.59569403357322 -17.11680196497636 0.0
vertex 12.577301045336274 -17.15121282566728 0.0
vertex 12.547139673682599 -17.17596562368575 0.0
endloop
endfacet
facet normal 0.0 -0.0 -1.0
outer loop
vertex 12.592387953251128 17.126041840487424 0.0
vertex 12.6 17.087773497250915 0.0
vertex 12.59569403357322 -17.11680196497636 0.0
endloop
endfacet
facet normal 0.0 0.0 -1.0
outer loop
vertex 12.53826834323651 17.180161450502045 0.0
vertex 12.570710678118655 17.15848417536957 0.0
vertex 12.592387953251128 17.126041840487424 0.0
endloop
endfacet
facet normal 0.0 0.0 -1.0
outer loop
vertex -12.529028467725446 17.183467530824135 0.0
vertex 12.5 17.187773497250916 0.0
vertex 12.53826834323651 17.180161450502045 0.0
endloop
endfacet
facet normal 0.0 0.0 -1.0
outer loop
vertex -12.588192126434835 17.134913170933515 0.0
vertex -12.563439328416365 17.16507454258719 0.0
vertex -12.529028467725446 17.183467530824135 0.0
endloop
endfacet
facet normal 0.0 0.0 -1.0
outer loop
vertex -12.4 16.987773497250913 0.0
vertex -12.599518472667219 17.09757521128387 0.0
vertex -12.588192126434835 17.134913170933515 0.0
endloop
endfacet
facet normal 0.0 0.0 -1.0
outer loop
vertex -12.519509032201613 -17.185852025291236 0.0
vertex -12.583146961230254 -17.143330520552876 0.0
vertex 12.4 -16.987773497250913 0.0
endloop
endfacet
facet normal 0.0 0.0 -1.0
outer loop
vertex 12.59569403357322 -17.11680196497636 0.0
vertex 12.547139673682599 -17.17596562368575 0.0
vertex -12.519509032201613 -17.185852025291236 0.0
endloop
endfacet
facet normal 0.0 0.0 -0.9999999999999999
outer loop
vertex 12.53826834323651 17.180161450502045 0.0
vertex 12.592387953251128 17.126041840487424 0.0
vertex 12.59569403357322 -17.11680196497636 0.0
endloop
endfacet
facet normal 0.0 0.0 -1.0
outer loop
vertex -12.588192126434835 17.134913170933515 0.0
vertex -12.529028467725446 17.183467530824135 0.0
vertex 12.53826834323651 17.180161450502045 0.0
endloop
endfacet
facet normal 0.0 0.0 -1.0
outer loop
vertex 12.4 16.987773497250913 0.0
vertex -12.4 16.987773497250913 0.0
vertex -12.588192126434835 17.134913170933515 0.0
endloop
endfacet
facet normal -0.0 0.0 -1.0
outer loop
vertex 12.59569403357322 -17.11680196497636 0.0
vertex -12.519509032201613 -17.185852025291236 0.0
vertex 12.4 -16.987773497250913 0.0
endloop
endfacet
facet normal 0.0 0.0 -1.0
outer loop
vertex 12.4 16.987773497250913 0.0
vertex -12.588192126434835 17.134913170933515 0.0
vertex 12.53826834323651 17.180161450502045 0.0
endloop
endfacet
facet normal 0.0 0.0 -1.0
outer loop
vertex 12.59569403357322 -17.11680196497636 0.0
vertex 12.4 -16.987773497250913 0.0
vertex 12.4 16.987773497250913 0.0
endloop
endfacet
facet normal 0.0 0.0 -1.0
outer loop
vertex 12.4 16.987773497250913 0.0
vertex 12.53826834323651 17.180161450502045 0.0
vertex 12.59569403357322 -17.11680196497636 0.0
endloop
endfacet
facet normal 0.0 0.0 0.9999999999999999
outer loop
vertex 12.4 -16.987773497250913 2.0
vertex -12.4 -16.987773497250913 2.0
vertex -12.6 -17.087773497250915 2.0
endloop
endfacet
facet normal 0.0 0.0 1.0
outer loop
vertex -12.6 -17.087773497250915 2.0
vertex -12.599518472667219 -17.09757521128387 2.0
vertex -12.598078528040324 -17.107282529452526 2.0
endloop
endfacet
facet normal 0.0 0.0 0.9999999999999999
outer loop
vertex -12.598078528040324 -17.107282529452526 2.0
vertex -12.59569403357322 -17.11680196497636 2.0
vertex -12.592387953251128 -17.126041840487424 2.0
endloop
endfacet
facet normal 0.0 0.0 1.0
outer loop
vertex -12.592387953251128 -17.126041840487424 2.0
vertex -12.588192126434835 -17.134913170933515 2.0
vertex -12.583146961230254 -17.143330520552876 2.0
endloop
endfacet
facet normal 0.0 0.0 1.0
outer loop
vertex -12.583146961230254 -17.143330520552876 2.0
vertex -12.577301045336274 -17.15121282566728 2.0
vertex -12.570710678118655 -17.15848417536957 2.0
endloop
endfacet
facet normal 0.0 0.0 1.0
outer loop
vertex -12.570710678118655 -17.15848417536957 2.0
vertex -12.563439328416365 -17.16507454258719 2.0
vertex -12.55555702330196 -17.17092045848117 2.0
endloop
endfacet
facet normal 0.0 0.0 1.0
outer loop
vertex -12.55555702330196 -17.17092045848117 2.0
vertex -12.547139673682599 -17.17596562368575 2.0
vertex -12.53826834323651 -17.180161450502045 2.0
endloop
endfacet
facet normal 0.0 0.0 1.0
outer loop
vertex -12.53826834323651 -17.180161450502045 2.0
vertex -12.529028467725446 -17.183467530824135 2.0
vertex -12.519509032201613 -17.185852025291236 2.0
endloop
endfacet
facet normal 0.0 0.0 1.0
outer loop
vertex -12.519509032201613 -17.185852025291236 2.0
vertex -12.509801714032957 -17.187291969918135 2.0
vertex -12.5 -17.187773497250916 2.0
endloop
endfacet
facet normal 0.0 0.0 1.0
outer loop
vertex -12.5 -17.187773497250916 2.0
vertex 12.5 -17.187773497250916 2.0
vertex 12.509801714032957 -17.187291969918135 2.0
endloop
endfacet
facet normal 0.0 0.0 1.0
outer loop
vertex 12.509801714032957 -17.187291969918135 2.0
vertex 12.519509032201613 -17.185852025291236 2.0
vertex 12.529028467725446 -17.183467530824135 2.0
endloop
endfacet
facet normal 0.0 0.0 0.9999999999999999
outer loop
vertex 12.529028467725446 -17.183467530824135 2.0
vertex 12.53826834323651 -17.180161450502045 2.0
vertex 12.547139673682599 -17.17596562368575 2.0
endloop
endfacet
facet normal 0.0 0.0 1.0
outer loop
vertex 12.547139673682599 -17.17596562368575 2.0
vertex 12.55555702330196 -17.17092045848117 2.0
vertex 12.563439328416365 -17.16507454258719 2.0
endloop
endfacet
facet normal 0.0 0.0 1.0
outer loop
vertex 12.563439328416365 -17.16507454258719 2.0
vertex 12.570710678118655 -17.15848417536957 2.0
vertex 12.577301045336274 -17.15121282566728 2.0
endloop
endfacet
facet normal 0.0 0.0 1.0
outer loop
vertex 12.577301045336274 -17.15121282566728 2.0
vertex 12.583146961230254 -17.143330520552876 2.0
vertex 12.588192126434835 -17.134913170933515 2.0
endloop
endfacet
facet normal 0.0 0.0 1.0
outer loop
vertex 12.588192126434835 -17.134913170933515 2.0
vertex 12.592387953251128 -17.126041840487424 2.0
vertex 12.59569403357322 -17.11680196497636 2.0
endloop
endfacet
facet normal 0.0 0.0 1.0
outer loop
vertex 12.59569403357322 -17.11680196497636 2.0
vertex 12.598078528040324 -17.107282529452526 2.0
vertex 12.599518472667219 -17.09757521128387 2.0
endloop
endfacet
facet normal 0.0 0.0 1.0
outer loop
vertex 12.599518472667219 -17.09757521128387 2.0
vertex 12.6 -17.087773497250915 2.0
vertex 12.6 17.087773497250915 2.0
endloop
endfacet
facet normal 0.0 0.0 1.0
outer loop
vertex 12.6 17.087773497250915 2.0
vertex 12.599518472667219 17.09757521128387 2.0
vertex 12.598078528040324 17.107282529452526 2.0
endloop
endfacet
facet normal 0.0 0.0 0.9999999999999999
outer loop
vertex 12.598078528040324 17.107282529452526 2.0
vertex 12.59569403357322 17.11680196497636 2.0
vertex 12.592387953251128 17.126041840487424 2.0
endloop
endfacet
facet normal 0.0 0.0 1.0
outer loop
vertex 12.592387953251128 17.126041840487424 2.0
vertex 12.588192126434835 17.134913170933515 2.0
vertex 12.583146961230254 17.143330520552876 2.0
endloop
endfacet
facet normal 0.0 0.0 1.0
outer loop
vertex 12.583146961230254 17.143330520552876 2.0
vertex 12.577301045336274 17.15121282566728 2.0
vertex 12.570710678118655 17.15848417536957 2.0
endloop
endfacet
facet normal 0.0 0.0 1.0
outer loop
vertex 12.570710678118655 17.15848417536957 2.0
vertex 12.563439328416365 17.16507454258719 2.0
vertex 12.55555702330196 17.17092045848117 2.0
endloop
endfacet
facet normal 0.0 0.0 1.0
outer loop
vertex 12.55555702330196 17.17092045848117 2.0
vertex 12.547139673682599 17.17596562368575 2.0
vertex 12.53826834323651 17.180161450502045 2.0
endloop
endfacet
facet normal 0.0 0.0 1.0
outer loop
vertex 12.53826834323651 17.180161450502045 2.0
vertex 12.529028467725446 17.183467530824135 2.0
vertex 12.519509032201613 17.185852025291236 2.0
endloop
endfacet
facet normal 0.0 0.0 1.0
outer loop
vertex 12.519509032201613 17.185852025291236 2.0
vertex 12.509801714032957 17.187291969918135 2.0
vertex 12.5 17.187773497250916 2.0
endloop
endfacet
facet normal 0.0 0.0 1.0
outer loop
vertex 12.5 17.187773497250916 2.0
vertex -12.5 17.187773497250916 2.0
vertex -12.509801714032957 17.187291969918135 2.0
endloop
endfacet
facet normal 0.0 0.0 1.0
outer loop
vertex -12.509801714032957 17.187291969918135 2.0
vertex -12.519509032201613 17.185852025291236 2.0
vertex -12.529028467725446 17.183467530824135 2.0
endloop
endfacet
facet normal 0.0 0.0 0.9999999999999999
outer loop
vertex -12.529028467725446 17.183467530824135 2.0
vertex -12.53826834323651 17.180161450502045 2.0
vertex -12.547139673682599 17.17596562368575 2.0
endloop
endfacet
facet normal 0.0 0.0 1.0
outer loop
vertex -12.547139673682599 17.17596562368575 2.0
vertex -12.55555702330196 17.17092045848117 2.0
vertex -12.563439328416365 17.16507454258719 2.0
endloop
endfacet
facet normal 0.0 0.0 1.0
outer loop
vertex -12.563439328416365 17.16507454258719 2.0
vertex -12.570710678118655 17.15848417536957 2.0
vertex -12.577301045336274 17.15121282566728 2.0
endloop
endfacet
facet normal 0.0 0.0 1.0
outer loop
vertex -12.577301045336274 17.15121282566728 2.0
vertex -12.583146961230254 17.143330520552876 2.0
vertex -12.588192126434835 17.134913170933515 2.0
endloop
endfacet
facet normal 0.0 0.0 1.0
outer loop
vertex -12.588192126434835 17.134913170933515 2.0
vertex -12.592387953251128 17.126041840487424 2.0
vertex -12.59569403357322 17.11680196497636 2.0
endloop
endfacet
facet normal 0.0 0.0 1.0
outer loop
vertex -12.59569403357322 17.11680196497636 2.0
vertex -12.598078528040324 17.107282529452526 2.0
vertex -12.599518472667219 17.09757521128387 2.0
endloop
endfacet
facet normal 0.0 0.0 1.0
outer loop
vertex -12.599518472667219 17.09757521128387 2.0
vertex -12.6 17.087773497250915 2.0
vertex -12.6 -17.087773497250915 2.0
endloop
endfacet
facet normal 0.0 0.0 1.0
outer loop
vertex -12.6 -17.087773497250915 2.0
vertex -12.4 -16.987773497250913 2.0
vertex -12.4 16.987773497250913 2.0
endloop
endfacet
facet normal 0.0 0.0 1.0
outer loop
vertex 12.4 -16.987773497250913 2.0
vertex -12.6 -17.087773497250915 2.0
vertex -12.598078528040324 -17.107282529452526 2.0
endloop
endfacet
facet normal 0.0 0.0 1.0
outer loop
vertex -12.598078528040324 -17.107282529452526 2.0
vertex -12.592387953251128 -17.126041840487424 2.0
vertex -12.583146961230254 -17.143330520552876 2.0
endloop
endfacet
facet normal 0.0 0.0 1.0
outer loop
vertex -12.583146961230254 -17.143330520552876 2.0
vertex -12.570710678118655 -17.15848417536957 2.0
vertex -12.55555702330196 -17.17092045848117 2.0
endloop
endfacet
facet normal 0.0 0.0 1.0
outer loop
vertex -12.55555702330196 -17.17092045848117 2.0
vertex -12.53826834323651 -17.180161450502045 2.0
vertex -12.519509032201613 -17.185852025291236 2.0
endloop
endfacet
facet normal -0.0 0.0 1.0
outer loop
vertex -12.519509032201613 -17.185852025291236 2.0
vertex -12.5 -17.187773497250916 2.0
vertex 12.509801714032957 -17.187291969918135 2.0
endloop
endfacet
facet normal 0.0 0.0 0.9999999999999999
outer loop
vertex 12.509801714032957 -17.187291969918135 2.0
vertex 12.529028467725446 -17.183467530824135 2.0
vertex 12.547139673682599 -17.17596562368575 2.0
endloop
endfacet
facet normal 0.0 0.0 1.0
outer loop
vertex 12.547139673682599 -17.17596562368575 2.0
vertex 12.563439328416365 -17.16507454258719 2.0
vertex 12.577301045336274 -17.15121282566728 2.0
endloop
endfacet
facet normal 0.0 0.0 1.0
outer loop
vertex 12.577301045336274 -17.15121282566728 2.0
vertex 12.588192126434835 -17.134913170933515 2.0
vertex 12.59569403357322 -17.11680196497636 2.0
endloop
endfacet
facet normal 0.0 0.0 1.0
outer loop
vertex 12.59569403357322 -17.11680196497636 2.0
vertex 12.599518472667219 -17.09757521128387 2.0
vertex 12.6 17.087773497250915 2.0
endloop
endfacet
facet normal 0.0 0.0 1.0
outer loop
vertex 12.6 17.087773497250915 2.0
vertex 12.598078528040324 17.107282529452526 2.0
vertex 12.592387953251128 17.126041840487424 2.0
endloop
endfacet
facet normal 0.0 0.0 1.0
outer loop
vertex 12.592387953251128 17.126041840487424 2.0
vertex 12.583146961230254 17.143330520552876 2.0
vertex 12.570710678118655 17.15848417536957 2.0
endloop
endfacet
facet normal 0.0 0.0 1.0
outer loop
vertex 12.570710678118655 17.15848417536957 2.0
vertex 12.55555702330196 17.17092045848117 2.0
vertex 12.53826834323651 17.180161450502045 2.0
endloop
endfacet
facet normal 0.0 0.0 1.0
outer loop
vertex 12.53826834323651 17.180161450502045 2.0
vertex 12.519509032201613 17.185852025291236 2.0
vertex 12.5 17.187773497250916 2.0
endloop
endfacet
facet normal 0.0 0.0 0.9999999999999999
outer loop
vertex 12.5 17.187773497250916 2.0
vertex -12.509801714032957 17.187291969918135 2.0
vertex -12.529028467725446 17.183467530824135 2.0
endloop
endfacet
facet normal 0.0 0.0 1.0
outer loop
vertex -12.529028467725446 17.183467530824135 2.0
vertex -12.547139673682599 17.17596562368575 2.0
vertex -12.563439328416365 17.16507454258719 2.0
endloop
endfacet
facet normal 0.0 0.0 1.0
outer loop
vertex -12.563439328416365 17.16507454258719 2.0
vertex -12.577301045336274 17.15121282566728 2.0
vertex -12.588192126434835 17.134913170933515 2.0
endloop
endfacet
facet normal 0.0 0.0 1.0
outer loop
vertex -12.588192126434835 17.134913170933515 2.0
vertex -12.59569403357322 17.11680196497636 2.0
vertex -12.599518472667219 17.09757521128387 2.0
endloop
endfacet
facet normal -0.0 0.0 1.0
outer loop
vertex -12.599518472667219 17.09757521128387 2.0
vertex -12.6 -17.087773497250915 2.0
vertex -12.4 16.987773497250913 2.0
endloop
endfacet
facet normal 0.0 0.0 1.0
outer loop
vertex 12.4 -16.987773497250913 2.0
vertex -12.598078528040324 -17.107282529452526 2.0
vertex -12.583146961230254 -17.143330520552876 2.0
endloop
endfacet
facet normal 0.0 0.0 1.0
outer loop
vertex -12.583146961230254 -17.143330520552876 2.0
vertex -12.55555702330196 -17.17092045848117 2.0
vertex -12.519509032201613 -17.185852025291236 2.0
endloop
endfacet
facet normal -0.0 0.0 0.9999999999999999
outer loop
vertex -12.519509032201613 -17.185852025291236 2.0
vertex 12.509801714032957 -17.187291969918135 2.0
vertex 12.547139673682599 -17.17596562368575 2.0
endloop
endfacet
facet normal 0.0 0.0 1.0
outer loop
vertex 12.547139673682599 -17.17596562368575 2.0
vertex 12.577301045336274 -17.15121282566728 2.0
vertex 12.59569403357322 -17.11680196497636 2.0
endloop
endfacet
facet normal 0.0 -0.0 1.0
outer loop
vertex 12.59569403357322 -17.11680196497636 2.0
vertex 12.6 17.087773497250915 2.0
vertex 12.592387953251128 17.126041840487424 2.0
endloop
endfacet
facet normal 0.0 0.0 1.0
outer loop
vertex 12.592387953251128 17.126041840487424 2.0
vertex 12.570710678118655 17.15848417536957 2.0
vertex 12.53826834323651 17.180161450502045 2.0
endloop
endfacet
facet normal 0.0 0.0 1.0
outer loop
vertex 12.53826834323651 17.180161450502045 2.0
vertex 12.5 17.187773497250916 2.0
vertex -12.529028467725446 17.183467530824135 2.0
endloop
endfacet
facet normal 0.0 0.0 1.0
outer loop
vertex -12.529028467725446 17.183467530824135 2.0
vertex -12.563439328416365 17.16507454258719 2.0
vertex -12.588192126434835 17.134913170933515 2.0
endloop
endfacet
facet normal 0.0 0.0 1.0
outer loop
vertex -12.588192126434835 17.134913170933515 2.0
vertex -12.599518472667219 17.09757521128387 2.0
vertex -12.4 16.987773497250913 2.0
endloop
endfacet
facet normal 0.0 0.0 1.0
outer loop
vertex 12.4 -16.987773497250913 2.0
vertex -12.583146961230254 -17.143330520552876 2.0
vertex -12.519509032201613 -17.185852025291236 2.0
endloop
endfacet
facet normal 0.0 0.0 1.0
outer loop
vertex -12.519509032201613 -17.185852025291236 2.0
vertex 12.547139673682599 -17.17596562368575 2.0
vertex 12.59569403357322 -17.11680196497636 2.0
endloop
endfacet
facet normal 0.0 0.0 0.9999999999999999
outer loop
vertex 12.59569403357322 -17.11680196497636 2.0
vertex 12.592387953251128 17.126041840487424 2.0
vertex 12.53826834323651 17.180161450502045 2.0
endloop
endfacet
facet normal 0.0 0.0 1.0
outer loop
vertex 12.53826834323651 17.180161450502045 2.0
vertex -12.529028467725446 17.183467530824135 2.0
vertex -12.588192126434835 17.134913170933515 2.0
endloop
endfacet
facet normal -0.0 0.0 1.0
outer loop
vertex -12.588192126434835 17.134913170933515 2.0
vertex -12.4 16.987773497250913 2.0
vertex 12.4 16.987773497250913 2.0
endloop
endfacet
facet normal -0.0 0.0 1.0
outer loop
vertex 12.4 -16.987773497250913 2.0
vertex -12.519509032201613 -17.185852025291236 2.0
vertex 12.59569403357322 -17.11680196497636 2.0
endloop
endfacet
facet normal 0.0 0.0 1.0
outer loop
vertex 12.53826834323651 17.180161450502045 2.0
vertex -12.588192126434835 17.134913170933515 2.0
vertex 12.4 16.987773497250913 2.0
endloop
endfacet
facet normal 0.0 0.0 1.0
outer loop
vertex 12.4 16.987773497250913 2.0
vertex 12.4 -16.987773497250913 2.0
vertex 12.59569403357322 -17.11680196497636 2.0
endloop
endfacet
facet normal 0.0 0.0 1.0
outer loop
vertex 12.59569403357322 -17.11680196497636 2.0
vertex 12.53826834323651 17.180161450502045 2.0
vertex 12.4 16.987773497250913 2.0
endloop
endfacet
facet normal -0.9987954562051705 0.04906767432745723 0.0
outer loop
vertex -12.6 17.087773497250915 2.0
vertex -12.599518472667219 17.09757521128387 2.0
vertex -12.6 17.087773497250915 0.0
endloop
endfacet
facet normal -0.9987954562051705 0.04906767432745723 0.0
outer loop
vertex -12.6 17.087773497250915 0.0
vertex -12.599518472667219 17.09757521128387 2.0
vertex -12.599518472667219 17.09757521128387 0.0
endloop
endfacet
facet normal -0.9891765099647957 0.1467304744552628 0.0
outer loop
vertex -12.599518472667219 17.09757521128387 2.0
vertex -12.598078528040324 17.107282529452526 2.0
vertex -12.599518472667219 17.09757521128387 0.0
endloop
endfacet
facet normal -0.9891765099647957 0.1467304744552628 0.0
outer loop
vertex -12.599518472667219 17.09757521128387 0.0
vertex -12.598078528040324 17.107282529452526 2.0
vertex -12.598078528040324 17.107282529452526 0.0
endloop
endfacet
facet normal -0.9700312531945328 0.2429801799033088 0.0
outer loop
vertex -12.598078528040324 17.107282529452526 2.0
vertex -12.59569403357322 17.11680196497636 2.0
vertex -12.598078528040324 17.107282529452526 0.0
endloop
endfacet
facet normal -0.9700312531945328 0.2429801799033088 0.0
outer loop
vertex -12.598078528040324 17.107282529452526 0.0
vertex -12.59569403357322 17.11680196497636 2.0
vertex -12.59569403357322 17.11680196497636 0.0
endloop
endfacet
facet normal -0.9415440651830269 0.3368898533922026 0.0
outer loop
vertex -12.59569403357322 17.11680196497636 2.0
vertex -12.592387953251128 17.126041840487424 2.0
vertex -12.59569403357322 17.11680196497636 0.0
endloop
endfacet
facet normal -0.9415440651830269 0.3368898533922026 0.0
outer loop
vertex -12.59569403357322 17.11680196497636 0.0
vertex -12.592387953251128 17.126041840487424 2.0
vertex -12.592387953251128 17.126041840487424 0.0
endloop
endfacet
facet normal -0.9039892931234568 0.42755509343025366 0.0
outer loop
vertex -12.592387953251128 17.126041840487424 2.0
vertex -12.588192126434835 17.134913170933515 2.0
vertex -12.592387953251128 17.126041840487424 0.0
endloop
endfacet
facet normal -0.9039892931234568 0.42755509343025366 0.0
outer loop
vertex -12.592387953251128 17.126041840487424 0.0
vertex -12.588192126434835 17.134913170933515 2.0
vertex -12.588192126434835 17.134913170933515 0.0
endloop
endfacet
facet normal -0.8577286100002532 0.514102744193253 0.0
outer loop
vertex -12.588192126434835 17.134913170933515 2.0
vertex -12.583146961230254 17.143330520552876 2.0
vertex -12.588192126434835 17.134913170933515 0.0
endloop
endfacet
facet normal -0.8577286100002532 0.514102744193253 0.0
outer loop
vertex -12.588192126434835 17.134913170933515 0.0
vertex -12.583146961230254 17.143330520552876 2.0
vertex -12.583146961230254 17.143330520552876 0.0
endloop
endfacet
facet normal -0.8032075314806497 0.595699304492427 0.0
outer loop
vertex -12.583146961230254 17.143330520552876 2.0
vertex -12.577301045336274 17.15121282566728 2.0
vertex -12.583146961230254 17.143330520552876 0.0
endloop
endfacet
facet normal -0.8032075314806497 0.595699304492427 0.0
outer loop
vertex -12.583146961230254 17.143330520552876 0.0
vertex -12.577301045336274 17.15121282566728 2.0
vertex -12.577301045336274 17.15121282566728 0.0
endloop
endfacet
facet normal -0.7409511253549247 0.6715589548470564 0.0
outer loop
vertex -12.577301045336274 17.15121282566728 2.0
vertex -12.570710678118655 17.15848417536957 2.0
vertex -12.577301045336274 17.15121282566728 0.0
endloop
endfacet
facet normal -0.7409511253549247 0.6715589548470564 0.0
outer loop
vertex -12.577301045336274 17.15121282566728 0.0
vertex -12.570710678118655 17.15848417536957 2.0
vertex -12.570710678118655 17.15848417536957 0.0
endloop
endfacet
facet normal -0.6715589548470564 0.7409511253549247 0.0
outer loop
vertex -12.570710678118655 17.15848417536957 2.0
vertex -12.563439328416365 17.16507454258719 2.0
vertex -12.570710678118655 17.15848417536957 0.0
endloop
endfacet
facet normal -0.6715589548470564 0.7409511253549247 0.0
outer loop
vertex -12.570710678118655 17.15848417536957 0.0
vertex -12.563439328416365 17.16507454258719 2.0
vertex -12.563439328416365 17.16507454258719 0.0
endloop
endfacet
facet normal -0.5956993044924572 0.8032075314806273 0.0
outer loop
vertex -12.563439328416365 17.16507454258719 2.0
vertex -12.55555702330196 17.17092045848117 2.0
vertex -12.563439328416365 17.16507454258719 0.0
endloop
endfacet
facet normal -0.5956993044924572 0.8032075314806273 0.0
outer loop
vertex -12.563439328416365 17.16507454258719 0.0
vertex -12.55555702330196 17.17092045848117 2.0
vertex -12.55555702330196 17.17092045848117 0.0
endloop
endfacet
facet normal -0.514102744193253 0.8577286100002532 0.0
outer loop
vertex -12.55555702330196 17.17092045848117 2.0
vertex -12.547139673682599 17.17596562368575 2.0
vertex -12.55555702330196 17.17092045848117 0.0
endloop
endfacet
facet normal -0.514102744193253 0.8577286100002532 0.0
outer loop
vertex -12.55555702330196 17.17092045848117 0.0
vertex -12.547139673682599 17.17596562368575 2.0
vertex -12.547139673682599 17.17596562368575 0.0
endloop
endfacet
facet normal -0.42755509343032366 0.9039892931234237 0.0
outer loop
vertex -12.547139673682599 17.17596562368575 2.0
vertex -12.53826834323651 17.180161450502045 2.0
vertex -12.547139673682599 17.17596562368575 0.0
endloop
endfacet
facet normal -0.42755509343032366 0.9039892931234237 0.0
outer loop
vertex -12.547139673682599 17.17596562368575 0.0
vertex -12.53826834323651 17.180161450502045 2.0
vertex -12.53826834323651 17.180161450502045 0.0
endloop
endfacet
facet normal -0.33688985339204214 0.9415440651830843 0.0
outer loop
vertex -12.53826834323651 17.180161450502045 2.0
vertex -12.529028467725446 17.183467530824135 2.0
vertex -12.53826834323651 17.180161450502045 0.0
endloop
endfacet
facet normal -0.33688985339204214 0.9415440651830843 0.0
outer loop
vertex -12.53826834323651 17.180161450502045 0.0
vertex -12.529028467725446 17.183467530824135 2.0
vertex -12.529028467725446 17.183467530824135 0.0
endloop
endfacet
facet normal -0.24298017990318116 0.9700312531945648 0.0
outer loop
vertex -12.529028467725446 17.183467530824135 2.0
vertex -12.519509032201613 17.185852025291236 2.0
vertex -12.529028467725446 17.183467530824135 0.0
endloop
endfacet
facet normal -0.24298017990318116 0.9700312531945648 0.0
outer loop
vertex -12.529028467725446 17.183467530824135 0.0
vertex -12.519509032201613 17.185852025291236 2.0
vertex -12.519509032201613 17.185852025291236 0.0
endloop
endfacet
facet normal -0.14673047445559076 0.989176509964747 0.0
outer loop
vertex -12.519509032201613 17.185852025291236 2.0
vertex -12.509801714032957 17.187291969918135 2.0
vertex -12.519509032201613 17.185852025291236 0.0
endloop
endfacet
facet normal -0.14673047445559076 0.989176509964747 0.0
outer loop
vertex -12.519509032201613 17.185852025291236 0.0
vertex -12.509801714032957 17.187291969918135 2.0
vertex -12.509801714032957 17.187291969918135 0.0
endloop
endfacet
facet normal -0.04906767432745723 0.9987954562051705 0.0
outer loop
vertex -12.509801714032957 17.187291969918135 2.0
vertex -12.5 17.187773497250916 2.0
vertex -12.509801714032957 17.187291969918135 0.0
endloop
endfacet
facet normal -0.04906767432745723 0.9987954562051705 0.0
outer loop
vertex -12.509801714032957 17.187291969918135 0.0
vertex -12.5 17.187773497250916 2.0
vertex -12.5 17.187773497250916 0.0
endloop
endfacet
facet normal -0.0 1.0 0.0
outer loop
vertex -12.5 17.187773497250916 2.0
vertex 12.5 17.187773497250916 2.0
vertex -12.5 17.187773497250916 0.0
endloop
endfacet
facet normal -0.0 1.0 0.0
outer loop
vertex -12.5 17.187773497250916 0.0
vertex 12.5 17.187773497250916 2.0
vertex 12.5 17.187773497250916 0.0
endloop
endfacet
facet normal 0.04906767432745723 0.9987954562051705 0.0
outer loop
vertex 12.5 17.187773497250916 2.0
vertex 12.509801714032957 17.187291969918135 2.0
vertex 12.5 17.187773497250916 0.0
endloop
endfacet
facet normal 0.04906767432745723 0.9987954562051705 0.0
outer loop
vertex 12.5 17.187773497250916 0.0
vertex 12.509801714032957 17.187291969918135 2.0
vertex 12.509801714032957 17.187291969918135 0.0
endloop
endfacet
facet normal 0.14673047445559076 0.989176509964747 0.0
outer loop
vertex 12.509801714032957 17.187291969918135 2.0
vertex 12.519509032201613 17.185852025291236 2.0
vertex 12.509801714032957 17.187291969918135 0.0
endloop
endfacet
facet normal 0.14673047445559076 0.989176509964747 0.0
outer loop
vertex 12.509801714032957 17.187291969918135 0.0
vertex 12.519509032201613 17.185852025291236 2.0
vertex 12.519509032201613 17.185852025291236 0.0
endloop
endfacet
facet normal 0.24298017990318116 0.9700312531945648 0.0
outer loop
vertex 12.519509032201613 17.185852025291236 2.0
vertex 12.529028467725446 17.183467530824135 2.0
vertex 12.519509032201613 17.185852025291236 0.0
endloop
endfacet
facet normal 0.24298017990318116 0.9700312531945648 0.0
outer loop
vertex 12.519509032201613 17.185852025291236 0.0
vertex 12.529028467725446 17.183467530824135 2.0
vertex 12.529028467725446 17.183467530824135 0.0
endloop
endfacet
facet normal 0.33688985339204214 0.9415440651830843 0.0
outer loop
vertex 12.529028467725446 17.183467530824135 2.0
vertex 12.53826834323651 17.180161450502045 2.0
vertex 12.529028467725446 17.183467530824135 0.0
endloop
endfacet
facet normal 0.33688985339204214 0.9415440651830843 0.0
outer loop
vertex 12.529028467725446 17.183467530824135 0.0
vertex 12.53826834323651 17.180161450502045 2.0
vertex 12.53826834323651 17.180161450502045 0.0
endloop
endfacet
facet normal 0.42755509343032366 0.9039892931234237 0.0
outer loop
vertex 12.53826834323651 17.180161450502045 2.0
vertex 12.547139673682599 17.17596562368575 2.0
vertex 12.53826834323651 17.180161450502045 0.0
endloop
endfacet
facet normal 0.42755509343032366 0.9039892931234237 0.0
outer loop
vertex 12.53826834323651 17.180161450502045 0.0
vertex 12.547139673682599 17.17596562368575 2.0
vertex 12.547139673682599 17.17596562368575 0.0
endloop
endfacet
facet normal 0.514102744193253 0.8577286100002532 0.0
outer loop
vertex 12.547139673682599 17.17596562368575 2.0
vertex 12.55555702330196 17.17092045848117 2.0
vertex 12.547139673682599 17.17596562368575 0.0
endloop
endfacet
facet normal 0.514102744193253 0.8577286100002532 0.0
outer loop
vertex 12.547139673682599 17.17596562368575 0.0
vertex 12.55555702330196 17.17092045848117 2.0
vertex 12.55555702330196 17.17092045848117 0.0
endloop
endfacet
facet normal 0.5956993044924572 0.8032075314806273 0.0
outer loop
vertex 12.55555702330196 17.17092045848117 2.0
vertex 12.563439328416365 17.16507454258719 2.0
vertex 12.55555702330196 17.17092045848117 0.0
endloop
endfacet
facet normal 0.5956993044924572 0.8032075314806273 0.0
outer loop
vertex 12.55555702330196 17.17092045848117 0.0
vertex 12.563439328416365 17.16507454258719 2.0
vertex 12.563439328416365 17.16507454258719 0.0
endloop
endfacet
facet normal 0.6715589548470564 0.7409511253549247 0.0
outer loop
vertex 12.563439328416365 17.16507454258719 2.0
vertex 12.570710678118655 17.15848417536957 2.0
vertex 12.563439328416365 17.16507454258719 0.0
endloop
endfacet
facet normal 0.6715589548470564 0.7409511253549247 0.0
outer loop
vertex 12.563439328416365 17.16507454258719 0.0
vertex 12.570710678118655 17.15848417536957 2.0
vertex 12.570710678118655 17.15848417536957 0.0
endloop
endfacet
facet normal 0.7409511253549247 0.6715589548470564 0.0
outer loop
vertex 12.570710678118655 17.15848417536957 2.0
vertex 12.577301045336274 17.15121282566728 2.0
vertex 12.570710678118655 17.15848417536957 0.0
endloop
endfacet
facet normal 0.7409511253549247 0.6715589548470564 0.0
outer loop
vertex 12.570710678118655 17.15848417536957 0.0
vertex 12.577301045336274 17.15121282566728 2.0
vertex 12.577301045336274 17.15121282566728 0.0
endloop
endfacet
facet normal 0.8032075314806497 0.595699304492427 0.0
outer loop
vertex 12.577301045336274 17.15121282566728 2.0
vertex 12.583146961230254 17.143330520552876 2.0
vertex 12.577301045336274 17.15121282566728 0.0
endloop
endfacet
facet normal 0.8032075314806497 0.595699304492427 0.0
outer loop
vertex 12.577301045336274 17.15121282566728 0.0
vertex 12.583146961230254 17.143330520552876 2.0
vertex 12.583146961230254 17.143330520552876 0.0
endloop
endfacet
facet normal 0.8577286100002532 0.514102744193253 0.0
outer loop
vertex 12.583146961230254 17.143330520552876 2.0
vertex 12.588192126434835 17.134913170933515 2.0
vertex 12.583146961230254 17.143330520552876 0.0
endloop
endfacet
facet normal 0.8577286100002532 0.514102744193253 0.0
outer loop
vertex 12.583146961230254 17.143330520552876 0.0
vertex 12.588192126434835 17.134913170933515 2.0
vertex 12.588192126434835 17.134913170933515 0.0
endloop
endfacet
facet normal 0.9039892931234568 0.42755509343025366 0.0
outer loop
vertex 12.588192126434835 17.134913170933515 2.0
vertex 12.592387953251128 17.126041840487424 2.0
vertex 12.588192126434835 17.134913170933515 0.0
endloop
endfacet
facet normal 0.9039892931234568 0.42755509343025366 0.0
outer loop
vertex 12.588192126434835 17.134913170933515 0.0
vertex 12.592387953251128 17.126041840487424 2.0
vertex 12.592387953251128 17.126041840487424 0.0
endloop
endfacet
facet normal 0.9415440651830269 0.3368898533922026 0.0
outer loop
vertex 12.592387953251128 17.126041840487424 2.0
vertex 12.59569403357322 17.11680196497636 2.0
vertex 12.592387953251128 17.126041840487424 0.0
endloop
endfacet
facet normal 0.9415440651830269 0.3368898533922026 0.0
outer loop
vertex 12.592387953251128 17.126041840487424 0.0
vertex 12.59569403357322 17.11680196497636 2.0
vertex 12.59569403357322 17.11680196497636 0.0
endloop
endfacet
facet normal 0.9700312531945328 0.2429801799033088 0.0
outer loop
vertex 12.59569403357322 17.11680196497636 2.0
vertex 12.598078528040324 17.107282529452526 2.0
vertex 12.59569403357322 17.11680196497636 0.0
endloop
endfacet
facet normal 0.9700312531945328 0.2429801799033088 0.0
outer loop
vertex 12.59569403357322 17.11680196497636 0.0
vertex 12.598078528040324 17.107282529452526 2.0
vertex 12.598078528040324 17.107282529452526 0.0
endloop
endfacet
facet normal 0.9891765099647957 0.1467304744552628 0.0
outer loop
vertex 12.598078528040324 17.107282529452526 2.0
vertex 12.599518472667219 17.09757521128387 2.0
vertex 12.598078528040324 17.107282529452526 0.0
endloop
endfacet
facet normal 0.9891765099647957 0.1467304744552628 0.0
outer loop
vertex 12.598078528040324 17.107282529452526 0.0
vertex 12.599518472667219 17.09757521128387 2.0
vertex 12.599518472667219 17.09757521128387 0.0
endloop
endfacet
facet normal 0.9987954562051705 0.04906767432745723 0.0
outer loop
vertex 12.599518472667219 17.09757521128387 2.0
vertex 12.6 17.087773497250915 2.0
vertex 12.599518472667219 17.09757521128387 0.0
endloop
endfacet
facet normal 0.9987954562051705 0.04906767432745723 0.0
outer loop
vertex 12.599518472667219 17.09757521128387 0.0
vertex 12.6 17.087773497250915 2.0
vertex 12.6 17.087773497250915 0.0
endloop
endfacet
facet normal 1.0 0.0 0.0
outer loop
vertex 12.6 17.087773497250915 2.0
vertex 12.6 -17.087773497250915 2.0
vertex 12.6 17.087773497250915 0.0
endloop
endfacet
facet normal 1.0 0.0 0.0
outer loop
vertex 12.6 17.087773497250915 0.0
vertex 12.6 -17.087773497250915 2.0
vertex 12.6 -17.087773497250915 0.0
endloop
endfacet
facet normal 0.9987954562051705 -0.04906767432745723 0.0
outer loop
vertex 12.6 -17.087773497250915 2.0
vertex 12.599518472667219 -17.09757521128387 2.0
vertex 12.6 -17.087773497250915 0.0
endloop
endfacet
facet normal 0.9987954562051705 -0.04906767432745723 0.0
outer loop
vertex 12.6 -17.087773497250915 0.0
vertex 12.599518472667219 -17.09757521128387 2.0
vertex 12.599518472667219 -17.09757521128387 0.0
endloop
endfacet
facet normal 0.9891765099647957 -0.1467304744552628 0.0
outer loop
vertex 12.599518472667219 -17.09757521128387 2.0
vertex 12.598078528040324 -17.107282529452526 2.0
vertex 12.599518472667219 -17.09757521128387 0.0
endloop
endfacet
facet normal 0.9891765099647957 -0.1467304744552628 0.0
outer loop
vertex 12.599518472667219 -17.09757521128387 0.0
vertex 12.598078528040324 -17.107282529452526 2.0
vertex 12.598078528040324 -17.107282529452526 0.0
endloop
endfacet
facet normal 0.9700312531945328 -0.2429801799033088 0.0
outer loop
vertex 12.598078528040324 -17.107282529452526 2.0
vertex 12.59569403357322 -17.11680196497636 2.0
vertex 12.598078528040324 -17.107282529452526 0.0
endloop
endfacet
facet normal 0.9700312531945328 -0.2429801799033088 0.0
outer loop
vertex 12.598078528040324 -17.107282529452526 0.0
vertex 12.59569403357322 -17.11680196497636 2.0
vertex 12.59569403357322 -17.11680196497636 0.0
endloop
endfacet
facet normal 0.9415440651830269 -0.3368898533922026 0.0
outer loop
vertex 12.59569403357322 -17.11680196497636 2.0
vertex 12.592387953251128 -17.126041840487424 2.0
vertex 12.59569403357322 -17.11680196497636 0.0
endloop
endfacet
facet normal 0.9415440651830269 -0.3368898533922026 0.0
outer loop
vertex 12.59569403357322 -17.11680196497636 0.0
vertex 12.592387953251128 -17.126041840487424 2.0
vertex 12.592387953251128 -17.126041840487424 0.0
endloop
endfacet
facet normal 0.9039892931234568 -0.42755509343025366 0.0
outer loop
vertex 12.592387953251128 -17.126041840487424 2.0
vertex 12.588192126434835 -17.134913170933515 2.0
vertex 12.592387953251128 -17.126041840487424 0.0
endloop
endfacet
facet normal 0.9039892931234568 -0.42755509343025366 0.0
outer loop
vertex 12.592387953251128 -17.126041840487424 0.0
vertex 12.588192126434835 -17.134913170933515 2.0
vertex 12.588192126434835 -17.134913170933515 0.0
endloop
endfacet
facet normal 0.8577286100002532 -0.514102744193253 0.0
outer loop
vertex 12.588192126434835 -17.134913170933515 2.0
vertex 12.583146961230254 -17.143330520552876 2.0
vertex 12.588192126434835 -17.134913170933515 0.0
endloop
endfacet
facet normal 0.8577286100002532 -0.514102744193253 0.0
outer loop
vertex 12.588192126434835 -17.134913170933515 0.0
vertex 12.583146961230254 -17.143330520552876 2.0
vertex 12.583146961230254 -17.143330520552876 0.0
endloop
endfacet
facet normal 0.8032075314806497 -0.595699304492427 0.0
outer loop
vertex 12.583146961230254 -17.143330520552876 2.0
vertex 12.577301045336274 -17.15121282566728 2.0
vertex 12.583146961230254 -17.143330520552876 0.0
endloop
endfacet
facet normal 0.8032075314806497 -0.595699304492427 0.0
outer loop
vertex 12.583146961230254 -17.143330520552876 0.0
vertex 12.577301045336274 -17.15121282566728 2.0
vertex 12.577301045336274 -17.15121282566728 0.0
endloop
endfacet
facet normal 0.7409511253549247 -0.6715589548470564 0.0
outer loop
vertex 12.577301045336274 -17.15121282566728 2.0
vertex 12.570710678118655 -17.15848417536957 2.0
vertex 12.577301045336274 -17.15121282566728 0.0
endloop
endfacet
facet normal 0.7409511253549247 -0.6715589548470564 0.0
outer loop
vertex 12.577301045336274 -17.15121282566728 0.0
vertex 12.570710678118655 -17.15848417536957 2.0
vertex 12.570710678118655 -17.15848417536957 0.0
endloop
endfacet
facet normal 0.6715589548470564 -0.7409511253549247 0.0
outer loop
vertex 12.570710678118655 -17.15848417536957 2.0
vertex 12.563439328416365 -17.16507454258719 2.0
vertex 12.570710678118655 -17.15848417536957 0.0
endloop
endfacet
facet normal 0.6715589548470564 -0.7409511253549247 0.0
outer loop
vertex 12.570710678118655 -17.15848417536957 0.0
vertex 12.563439328416365 -17.16507454258719 2.0
vertex 12.563439328416365 -17.16507454258719 0.0
endloop
endfacet
facet normal 0.5956993044924572 -0.8032075314806273 0.0
outer loop
vertex 12.563439328416365 -17.16507454258719 2.0
vertex 12.55555702330196 -17.17092045848117 2.0
vertex 12.563439328416365 -17.16507454258719 0.0
endloop
endfacet
facet normal 0.5956993044924572 -0.8032075314806273 0.0
outer loop
vertex 12.563439328416365 -17.16507454258719 0.0
vertex 12.55555702330196 -17.17092045848117 2.0
vertex 12.55555702330196 -17.17092045848117 0.0
endloop
endfacet
facet normal 0.514102744193253 -0.8577286100002532 0.0
outer loop
vertex 12.55555702330196 -17.17092045848117 2.0
vertex 12.547139673682599 -17.17596562368575 2.0
vertex 12.55555702330196 -17.17092045848117 0.0
endloop
endfacet
facet normal 0.514102744193253 -0.8577286100002532 0.0
outer loop
vertex 12.55555702330196 -17.17092045848117 0.0
vertex 12.547139673682599 -17.17596562368575 2.0
vertex 12.547139673682599 -17.17596562368575 0.0
endloop
endfacet
facet normal 0.42755509343032366 -0.9039892931234237 0.0
outer loop
vertex 12.547139673682599 -17.17596562368575 2.0
vertex 12.53826834323651 -17.180161450502045 2.0
vertex 12.547139673682599 -17.17596562368575 0.0
endloop
endfacet
facet normal 0.42755509343032366 -0.9039892931234237 0.0
outer loop
vertex 12.547139673682599 -17.17596562368575 0.0
vertex 12.53826834323651 -17.180161450502045 2.0
vertex 12.53826834323651 -17.180161450502045 0.0
endloop
endfacet
facet normal 0.33688985339204214 -0.9415440651830843 0.0
outer loop
vertex 12.53826834323651 -17.180161450502045 2.0
vertex 12.529028467725446 -17.183467530824135 2.0
vertex 12.53826834323651 -17.180161450502045 0.0
endloop
endfacet
facet normal 0.33688985339204214 -0.9415440651830843 0.0
outer loop
vertex 12.53826834323651 -17.180161450502045 0.0
vertex 12.529028467725446 -17.183467530824135 2.0
vertex 12.529028467725446 -17.183467530824135 0.0
endloop
endfacet
facet normal 0.24298017990318116 -0.9700312531945648 0.0
outer loop
vertex 12.529028467725446 -17.183467530824135 2.0
vertex 12.519509032201613 -17.185852025291236 2.0
vertex 12.529028467725446 -17.183467530824135 0.0
endloop
endfacet
facet normal 0.24298017990318116 -0.9700312531945648 0.0
outer loop
vertex 12.529028467725446 -17.183467530824135 0.0
vertex 12.519509032201613 -17.185852025291236 2.0
vertex 12.519509032201613 -17.185852025291236 0.0
endloop
endfacet
facet normal 0.14673047445559076 -0.989176509964747 0.0
outer loop
vertex 12.519509032201613 -17.185852025291236 2.0
vertex 12.509801714032957 -17.187291969918135 2.0
vertex 12.519509032201613 -17.185852025291236 0.0
endloop
endfacet
facet normal 0.14673047445559076 -0.989176509964747 0.0
outer loop
vertex 12.519509032201613 -17.185852025291236 0.0
vertex 12.509801714032957 -17.187291969918135 2.0
vertex 12.509801714032957 -17.187291969918135 0.0
endloop
endfacet
facet normal 0.04906767432745723 -0.9987954562051705 0.0
outer loop
vertex 12.509801714032957 -17.187291969918135 2.0
vertex 12.5 -17.187773497250916 2.0
vertex 12.509801714032957 -17.187291969918135 0.0
endloop
endfacet
facet normal 0.04906767432745723 -0.9987954562051705 0.0
outer loop
vertex 12.509801714032957 -17.187291969918135 0.0
vertex 12.5 -17.187773497250916 2.0
vertex 12.5 -17.187773497250916 0.0
endloop
endfacet
facet normal -0.0 -1.0 -0.0
outer loop
vertex 12.5 -17.187773497250916 2.0
vertex -12.5 -17.187773497250916 2.0
vertex 12.5 -17.187773497250916 0.0
endloop
endfacet
facet normal -0.0 -1.0 -0.0
outer loop
vertex 12.5 -17.187773497250916 0.0
vertex -12.5 -17.187773497250916 2.0
vertex -12.5 -17.187773497250916 0.0
endloop
endfacet
facet normal -0.04906767432745723 -0.9987954562051705 0.0
outer loop
vertex -12.5 -17.187773497250916 2.0
vertex -12.509801714032957 -17.187291969918135 2.0
vertex -12.5 -17.187773497250916 0.0
endloop
endfacet
facet normal -0.04906767432745723 -0.9987954562051705 -0.0
outer loop
vertex -12.5 -17.187773497250916 0.0
vertex -12.509801714032957 -17.187291969918135 2.0
vertex -12.509801714032957 -17.187291969918135 0.0
endloop
endfacet
facet normal -0.14673047445559076 -0.989176509964747 0.0
outer loop
vertex -12.509801714032957 -17.187291969918135 2.0
vertex -12.519509032201613 -17.185852025291236 2.0
vertex -12.509801714032957 -17.187291969918135 0.0
endloop
endfacet
facet normal -0.14673047445559076 -0.989176509964747 -0.0
outer loop
vertex -12.509801714032957 -17.187291969918135 0.0
vertex -12.519509032201613 -17.185852025291236 2.0
vertex -12.519509032201613 -17.185852025291236 0.0
endloop
endfacet
facet normal -0.24298017990318116 -0.9700312531945648 0.0
outer loop
vertex -12.519509032201613 -17.185852025291236 2.0
vertex -12.529028467725446 -17.183467530824135 2.0
vertex -12.519509032201613 -17.185852025291236 0.0
endloop
endfacet
facet normal -0.24298017990318116 -0.9700312531945648 -0.0
outer loop
vertex -12.519509032201613 -17.185852025291236 0.0
vertex -12.529028467725446 -17.183467530824135 2.0
vertex -12.529028467725446 -17.183467530824135 0.0
endloop
endfacet
facet normal -0.33688985339204214 -0.9415440651830843 0.0
outer loop
vertex -12.529028467725446 -17.183467530824135 2.0
vertex -12.53826834323651 -17.180161450502045 2.0
vertex -12.529028467725446 -17.183467530824135 0.0
endloop
endfacet
facet normal -0.33688985339204214 -0.9415440651830843 -0.0
outer loop
vertex -12.529028467725446 -17.183467530824135 0.0
vertex -12.53826834323651 -17.180161450502045 2.0
vertex -12.53826834323651 -17.180161450502045 0.0
endloop
endfacet
facet normal -0.42755509343032366 -0.9039892931234237 0.0
outer loop
vertex -12.53826834323651 -17.180161450502045 2.0
vertex -12.547139673682599 -17.17596562368575 2.0
vertex -12.53826834323651 -17.180161450502045 0.0
endloop
endfacet
facet normal -0.42755509343032366 -0.9039892931234237 -0.0
outer loop
vertex -12.53826834323651 -17.180161450502045 0.0
vertex -12.547139673682599 -17.17596562368575 2.0
vertex -12.547139673682599 -17.17596562368575 0.0
endloop
endfacet
facet normal -0.514102744193253 -0.8577286100002532 0.0
outer loop
vertex -12.547139673682599 -17.17596562368575 2.0
vertex -12.55555702330196 -17.17092045848117 2.0
vertex -12.547139673682599 -17.17596562368575 0.0
endloop
endfacet
facet normal -0.514102744193253 -0.8577286100002532 -0.0
outer loop
vertex -12.547139673682599 -17.17596562368575 0.0
vertex -12.55555702330196 -17.17092045848117 2.0
vertex -12.55555702330196 -17.17092045848117 0.0
endloop
endfacet
facet normal -0.5956993044924572 -0.8032075314806273 0.0
outer loop
vertex -12.55555702330196 -17.17092045848117 2.0
vertex -12.563439328416365 -17.16507454258719 2.0
vertex -12.55555702330196 -17.17092045848117 0.0
endloop
endfacet
facet normal -0.5956993044924572 -0.8032075314806273 -0.0
outer loop
vertex -12.55555702330196 -17.17092045848117 0.0
vertex -12.563439328416365 -17.16507454258719 2.0
vertex -12.563439328416365 -17.16507454258719 0.0
endloop
endfacet
facet normal -0.6715589548470564 -0.7409511253549247 0.0
outer loop
vertex -12.563439328416365 -17.16507454258719 2.0
vertex -12.570710678118655 -17.15848417536957 2.0
vertex -12.563439328416365 -17.16507454258719 0.0
endloop
endfacet
facet normal -0.6715589548470564 -0.7409511253549247 -0.0
outer loop
vertex -12.563439328416365 -17.16507454258719 0.0
vertex -12.570710678118655 -17.15848417536957 2.0
vertex -12.570710678118655 -17.15848417536957 0.0
endloop
endfacet
facet normal -0.7409511253549247 -0.6715589548470564 0.0
outer loop
vertex -12.570710678118655 -17.15848417536957 2.0
vertex -12.577301045336274 -17.15121282566728 2.0
vertex -12.570710678118655 -17.15848417536957 0.0
endloop
endfacet
facet normal -0.7409511253549247 -0.6715589548470564 -0.0
outer loop
vertex -12.570710678118655 -17.15848417536957 0.0
vertex -12.577301045336274 -17.15121282566728 2.0
vertex -12.577301045336274 -17.15121282566728 0.0
endloop
endfacet
facet normal -0.8032075314806497 -0.595699304492427 0.0
outer loop
vertex -12.577301045336274 -17.15121282566728 2.0
vertex -12.583146961230254 -17.143330520552876 2.0
vertex -12.577301045336274 -17.15121282566728 0.0
endloop
endfacet
facet normal -0.8032075314806497 -0.595699304492427 -0.0
outer loop
vertex -12.577301045336274 -17.15121282566728 0.0
vertex -12.583146961230254 -17.143330520552876 2.0
vertex -12.583146961230254 -17.143330520552876 0.0
endloop
endfacet
facet normal -0.8577286100002532 -0.514102744193253 0.0
outer loop
vertex -12.583146961230254 -17.143330520552876 2.0
vertex -12.588192126434835 -17.134913170933515 2.0
vertex -12.583146961230254 -17.143330520552876 0.0
endloop
endfacet
facet normal -0.8577286100002532 -0.514102744193253 -0.0
outer loop
vertex -12.583146961230254 -17.143330520552876 0.0
vertex -12.588192126434835 -17.134913170933515 2.0
vertex -12.588192126434835 -17.134913170933515 0.0
endloop
endfacet
facet normal -0.9039892931234568 -0.42755509343025366 0.0
outer loop
vertex -12.588192126434835 -17.134913170933515 2.0
vertex -12.592387953251128 -17.126041840487424 2.0
vertex -12.588192126434835 -17.134913170933515 0.0
endloop
endfacet
facet normal -0.9039892931234568 -0.42755509343025366 -0.0
outer loop
vertex -12.588192126434835 -17.134913170933515 0.0
vertex -12.592387953251128 -17.126041840487424 2.0
vertex -12.592387953251128 -17.126041840487424 0.0
endloop
endfacet
facet normal -0.9415440651830269 -0.3368898533922026 0.0
outer loop
vertex -12.592387953251128 -17.126041840487424 2.0
vertex -12.59569403357322 -17.11680196497636 2.0
vertex -12.592387953251128 -17.126041840487424 0.0
endloop
endfacet
facet normal -0.9415440651830269 -0.3368898533922026 -0.0
outer loop
vertex -12.592387953251128 -17.126041840487424 0.0
vertex -12.59569403357322 -17.11680196497636 2.0
vertex -12.59569403357322 -17.11680196497636 0.0
endloop
endfacet
facet normal -0.9700312531945328 -0.2429801799033088 0.0
outer loop
vertex -12.59569403357322 -17.11680196497636 2.0
vertex -12.598078528040324 -17.107282529452526 2.0
vertex -12.59569403357322 -17.11680196497636 0.0
endloop
endfacet
facet normal -0.9700312531945328 -0.2429801799033088 -0.0
outer loop
vertex -12.59569403357322 -17.11680196497636 0.0
vertex -12.598078528040324 -17.107282529452526 2.0
vertex -12.598078528040324 -17.107282529452526 0.0
endloop
endfacet
facet normal -0.9891765099647957 -0.1467304744552628 0.0
outer loop
vertex -12.598078528040324 -17.107282529452526 2.0
vertex -12.599518472667219 -17.09757521128387 2.0
vertex -12.598078528040324 -17.107282529452526 0.0
endloop
endfacet
facet normal -0.9891765099647957 -0.1467304744552628 -0.0
outer loop
vertex -12.598078528040324 -17.107282529452526 0.0
vertex -12.599518472667219 -17.09757521128387 2.0
vertex -12.599518472667219 -17.09757521128387 0.0
endloop
endfacet
facet normal -1.0 0.0 -0.0
outer loop
vertex -12.6 -17.087773497250915 2.0
vertex -12.6 17.087773497250915 2.0
vertex -12.6 -17.087773497250915 0.0
endloop
endfacet
facet normal -1.0 0.0 0.0
outer loop
vertex -12.6 -17.087773497250915 0.0
vertex -12.6 17.087773497250915 2.0
vertex -12.6 17.087773497250915 0.0
endloop
endfacet
facet normal -0.9987954562051705 -0.04906767432745723 0.0
outer loop
vertex -12.599518472667219 -17.09757521128387 2.0
vertex -12.6 -17.087773497250915 2.0
vertex -12.599518472667219 -17.09757521128387 0.0
endloop
endfacet
facet normal -0.9987954562051705 -0.04906767432745723 -0.0
outer loop
vertex -12.599518472667219 -17.09757521128387 0.0
vertex -12.6 -17.087773497250915 2.0
vertex -12.6 -17.087773497250915 0.0
endloop
endfacet
facet normal -1.0 0.0 -0.0
outer loop
vertex 12.4 -16.987773497250913 2.0
vertex 12.4 16.987773497250913 2.0
vertex 12.4 -16.987773497250913 0.0
endloop
endfacet
facet normal -1.0 0.0 0.0
outer loop
vertex 12.4 -16.987773497250913 0.0
vertex 12.4 16.987773497250913 2.0
vertex 12.4 16.987773497250913 0.0
endloop
endfacet
facet normal -0.0 -1.0 -0.0
outer loop
vertex 12.4 16.987773497250913 2.0
vertex -12.4 16.987773497250913 2.0
vertex 12.4 16.987773497250913 0.0
endloop
endfacet
facet normal -0.0 -1.0 -0.0
outer loop
vertex 12.4 16.987773497250913 0.0
vertex -12.4 16.987773497250913 2.0
vertex -12.4 16.987773497250913 0.0
endloop
endfacet
facet normal -0.0 1.0 0.0
outer loop
vertex -12.4 -16.987773497250913 2.0
vertex 12.4 -16.987773497250913 2.0
vertex -12.4 -16.987773497250913 0.0
endloop
endfacet
facet normal -0.0 1.0 0.0
outer loop
vertex -12.4 -16.987773497250913 0.0
vertex 12.4 -16.987773497250913 2.0
vertex 12.4 -16.987773497250913 0.0
endloop
endfacet
facet normal 1.0 0.0 0.0
outer loop
vertex -12.4 16.987773497250913 2.0
vertex -12.4 -16.987773497250913 2.0
vertex -12.4 16.987773497250913 0.0
endloop
endfacet
facet normal 1.0 0.0 0.0
outer loop
vertex -12.4 16.987773497250913 0.0
vertex -12.4 -16.987773497250913 2.0
vertex -12.4 -16.987773497250913 0.0
endloop
endfacet
endsolid